[Header]                  # Header keywords are followed by a single value
FileType htr              # single word string
DataType HTRS             # Hierarchical translations followed by rotations and Scale
FileVersion 1             # integer
NumSegments   22        # integer
NumFrames   5          # integer
DataFrameRate    60      # integer
EulerRotationOrder ZYX    # one word string
CalibrationUnits mm   # one word string
RotationUnits Degrees     # one word string
GlobalAxisofGravity Y        # character, X or Y or Z
BoneLengthAxis Y
ScaleFactor 1.0000
[SegmentNames&Hierarchy]
#CHILD         PARENT
LowerTorso	GLOBAL
MidTorso1	LowerTorso
MidTorso2	MidTorso1
UpperTorso	MidTorso2
Neck	UpperTorso
Head	Neck
LCollar	UpperTorso
LUpArm	LCollar
LLowArm	LUpArm
LHand	LLowArm
RCollar	UpperTorso
RUpArm	RCollar
RLowArm	RUpArm
RHand	RLowArm
RThigh	LowerTorso
RLowLeg	RThigh
RFoot	RLowLeg
RToe	RFoot
LThigh	LowerTorso
LLowLeg	LThigh
LFoot	LLowLeg
LToe	LFoot
[BasePosition]
#SegmentName Tx, Ty, Tz, Rx, Ry, Rz, BoneLength
LowerTorso	245.858011	950.547112	300.901792	3.160114	-0.119681	0.216534	50.177140	
MidTorso1	0.000000	50.177140	0.000000	12.744977	0.544086	-1.233692	50.243103	
MidTorso2	0.000000	50.243103	0.000000	-8.561622	-5.666755	-0.324056	70.108070	
UpperTorso	0.000000	70.108070	0.000000	-7.840640	5.423498	1.565454	211.798493	
Neck	0.000000	211.798493	0.000000	3.763396	2.354772	0.143986	247.477358	
Head	0.000000	247.477358	0.000000	87.188098	-1.617490	-0.909978	97.755902	
LCollar	5.963899	207.774288	0.020038	-0.085181	3.120430	-88.053499	154.341182	
LUpArm	0.000000	154.341182	0.000000	17.609330	2.601210	1.098979	257.694232	
LLowArm	0.000000	257.694232	0.000000	-4.295116	-4.411555	-0.381267	245.288314	
LHand	0.000000	245.288314	0.000000	-1.254656	0.451892	-3.187610	143.943585	
RCollar	-6.407295	207.548200	-0.033576	-3.957489	-2.573361	89.782717	159.716168	
RUpArm	0.000000	159.716168	0.000000	10.569861	0.025507	1.593474	259.181013	
RLowArm	0.000000	259.181013	0.000000	2.433186	-0.094719	0.439860	254.783021	
RHand	0.000000	254.783021	0.000000	-2.521327	-1.940663	10.821380	138.724995	
RThigh	-104.582724	-43.868855	71.110148	1.186921	1.056410	177.271085	484.665755	
RLowLeg	0.000000	484.665755	0.000000	-9.413113	-2.560999	2.584420	338.943480	
RFoot	0.000000	338.943480	0.000000	38.119802	-1.210697	-2.462270	108.422675	
RToe	0.000000	108.422675	0.000000	62.205972	5.729825	0.107186	135.948299	
LThigh	104.514322	-44.027056	71.110540	1.887019	-3.794944	-176.973714	484.665500	
LLowLeg	0.000000	484.665500	0.000000	-9.413064	2.561022	-2.584327	338.944952	
LFoot	0.000000	338.944952	0.000000	38.119895	1.210631	2.462181	108.422417	
LToe	0.000000	108.422417	0.000000	62.206117	-5.729564	-0.107296	135.948400	
#Beginning of Data. Separated by tabs
[LowerTorso]
#Fr     Tx      Ty      Tz      Rx      Ry      Rz      SF
569	1262.999878	-98.774216	1009.174988	-4.244630	-1.727340	4.322212	1.000000	
570	1274.851563	-101.190948	1021.305542	-4.909105	-3.413943	4.326072	1.000000	
571	1286.350708	-101.761642	1032.514648	-5.479743	-5.201366	4.585848	1.000000	
572	1296.116333	-99.993950	1041.408325	-5.764197	-6.711404	4.794223	1.000000	
573	1305.993042	-97.134529	1050.209595	-5.994286	-7.903441	4.784844	1.000000	
[MidTorso1]
#Fr     Tx      Ty      Tz      Rx      Ry      Rz      SF
569	0.000000	0.000000	0.000000	3.484158	0.703140	-1.609668	1.000000	
570	0.000000	0.000000	0.000000	3.382537	1.079331	-1.557319	1.000000	
571	0.000000	0.000000	0.000000	3.265922	1.351887	-1.589581	1.000000	
572	0.000000	0.000000	0.000000	3.188574	1.398323	-1.631389	1.000000	
573	0.000000	0.000000	0.000000	3.092755	1.221646	-1.493495	1.000000	
[MidTorso2]
#Fr     Tx      Ty      Tz      Rx      Ry      Rz      SF
569	0.000000	0.000000	0.000000	3.296276	1.011648	-1.816406	1.000000	
570	0.000000	0.000000	0.000000	3.197570	1.373548	-1.699957	1.000000	
571	0.000000	0.000000	0.000000	3.076454	1.644849	-1.680713	1.000000	
572	0.000000	0.000000	0.000000	2.995068	1.694888	-1.707782	1.000000	
573	0.000000	0.000000	0.000000	2.915405	1.497679	-1.588419	1.000000	
[UpperTorso]
#Fr     Tx      Ty      Tz      Rx      Ry      Rz      SF
569	0.000000	0.000000	0.000000	3.483506	1.109212	-1.355386	1.000000	
570	0.000000	0.000000	0.000000	3.387349	1.455643	-1.197860	1.000000	
571	0.000000	0.000000	0.000000	3.274605	1.726847	-1.150853	1.000000	
572	0.000000	0.000000	0.000000	3.197708	1.783734	-1.177457	1.000000	
573	0.000000	0.000000	0.000000	3.100122	1.575779	-1.095143	1.000000	
[Neck]
#Fr     Tx      Ty      Tz      Rx      Ry      Rz      SF
569	0.000000	0.000000	0.000000	-11.131173	-20.828176	-0.988732	1.000000	
570	0.000000	0.000000	0.000000	-10.441928	-20.401955	-1.026430	1.000000	
571	0.000000	0.000000	0.000000	-9.898431	-19.563042	-0.947354	1.000000	
572	0.000000	0.000000	0.000000	-9.899138	-18.151138	-0.754671	1.000000	
573	0.000000	0.000000	0.000000	-9.921576	-16.536037	-0.658432	1.000000	
[Head]
#Fr     Tx      Ty      Tz      Rx      Ry      Rz      SF
569	0.000000	0.000000	0.000000	-13.205308	-13.027174	2.880788	1.000000	
570	0.000000	0.000000	0.000000	-13.858504	-12.814237	2.975692	1.000000	
571	0.000000	0.000000	0.000000	-14.300921	-12.281122	2.981818	1.000000	
572	0.000000	0.000000	0.000000	-14.098521	-11.449610	2.853566	1.000000	
573	0.000000	0.000000	0.000000	-13.633605	-10.310063	2.602412	1.000000	
[LCollar]
#Fr     Tx      Ty      Tz      Rx      Ry      Rz      SF
569	0.000000	0.000000	0.000000	7.942700	2.996438	-20.539021	1.000000	
570	0.000000	0.000000	0.000000	7.937739	2.961111	-20.328772	1.000000	
571	0.000000	0.000000	0.000000	7.777236	2.867986	-20.119850	1.000000	
572	0.000000	0.000000	0.000000	7.216366	2.661080	-20.136328	1.000000	
573	0.000000	0.000000	0.000000	7.347155	2.694252	-20.029585	1.000000	
[LUpArm]
#Fr     Tx      Ty      Tz      Rx      Ry      Rz      SF
569	0.000000	0.000000	0.000000	-5.200904	19.339636	-54.496441	1.000000	
570	0.000000	0.000000	0.000000	-4.534003	18.108879	-53.391773	1.000000	
571	0.000000	0.000000	0.000000	-4.293309	15.008759	-52.482239	1.000000	
572	0.000000	0.000000	0.000000	-4.290865	12.374197	-51.302437	1.000000	
573	0.000000	0.000000	0.000000	-4.871935	9.345180	-50.368507	1.000000	
[LLowArm]
#Fr     Tx      Ty      Tz      Rx      Ry      Rz      SF
569	0.000000	0.000000	0.000000	28.209017	-0.005919	-0.001487	1.000000	
570	0.000000	0.000000	0.000000	27.806171	-0.005841	-0.001445	1.000000	
571	0.000000	0.000000	0.000000	27.471624	-0.005777	-0.001411	1.000000	
572	0.000000	0.000000	0.000000	27.270811	-0.005738	-0.001391	1.000000	
573	0.000000	0.000000	0.000000	26.752687	-0.005637	-0.001340	1.000000	
[LHand]
#Fr     Tx      Ty      Tz      Rx      Ry      Rz      SF
569	0.000000	0.000000	0.000000	-164.478928	11.922970	168.593842	1.000000	
570	0.000000	0.000000	0.000000	-161.478912	5.014409	166.368134	1.000000	
571	0.000000	0.000000	0.000000	-159.407730	-0.400477	164.402603	1.000000	
572	0.000000	0.000000	0.000000	-160.551956	-7.741505	165.180771	1.000000	
573	0.000000	0.000000	0.000000	-161.295853	-6.717765	165.631317	1.000000	
[RCollar]
#Fr     Tx      Ty      Tz      Rx      Ry      Rz      SF
569	0.000000	0.000000	0.000000	7.942068	-3.315820	22.518280	1.000000	
570	0.000000	0.000000	0.000000	7.000376	-2.888752	22.314352	1.000000	
571	0.000000	0.000000	0.000000	6.375075	-2.592976	22.043676	1.000000	
572	0.000000	0.000000	0.000000	6.907464	-2.783616	21.844364	1.000000	
573	0.000000	0.000000	0.000000	6.846821	-2.732236	21.652838	1.000000	
[RUpArm]
#Fr     Tx      Ty      Tz      Rx      Ry      Rz      SF
569	0.000000	0.000000	0.000000	3.204470	-28.417828	40.866646	1.000000	
570	0.000000	0.000000	0.000000	2.219471	-29.346329	40.806557	1.000000	
571	0.000000	0.000000	0.000000	1.490479	-30.536278	40.681149	1.000000	
572	0.000000	0.000000	0.000000	0.162586	-30.444796	40.805668	1.000000	
573	0.000000	0.000000	0.000000	-0.004856	-31.086241	40.336437	1.000000	
[RLowArm]
#Fr     Tx      Ty      Tz      Rx      Ry      Rz      SF
569	0.000000	0.000000	0.000000	20.442265	0.000008	0.000008	1.000000	
570	0.000000	0.000000	0.000000	19.127171	0.000007	0.000007	1.000000	
571	0.000000	0.000000	0.000000	18.105732	0.000007	0.000007	1.000000	
572	0.000000	0.000000	0.000000	18.637609	0.000007	0.000007	1.000000	
573	0.000000	0.000000	0.000000	18.421871	0.000007	0.000007	1.000000	
[RHand]
#Fr     Tx      Ty      Tz      Rx      Ry      Rz      SF
569	0.000000	0.000000	0.000000	178.628159	-4.932217	-174.546677	1.000000	
570	0.000000	0.000000	0.000000	177.583939	-8.288317	-173.847000	1.000000	
571	0.000000	0.000000	0.000000	176.747543	-10.316933	-172.828064	1.000000	
572	0.000000	0.000000	0.000000	177.773315	-13.215041	-171.369904	1.000000	
573	0.000000	0.000000	0.000000	177.868591	-11.732736	-170.751602	1.000000	
[RThigh]
#Fr     Tx      Ty      Tz      Rx      Ry      Rz      SF
569	0.000000	0.000000	0.000000	14.145445	-14.176545	-4.435142	1.000000	
570	0.000000	0.000000	0.000000	14.349276	-15.142812	-4.821291	1.000000	
571	0.000000	0.000000	0.000000	14.651025	-16.074139	-5.411303	1.000000	
572	0.000000	0.000000	0.000000	15.019220	-16.474758	-5.756089	1.000000	
573	0.000000	0.000000	0.000000	15.001500	-16.281086	-5.962920	1.000000	
[RLowLeg]
#Fr     Tx      Ty      Tz      Rx      Ry      Rz      SF
569	0.000000	0.000000	0.000000	-61.078949	-0.000007	-0.000020	1.000000	
570	0.000000	0.000000	0.000000	-63.139412	-0.000007	-0.000021	1.000000	
571	0.000000	0.000000	0.000000	-64.813484	-0.000008	-0.000021	1.000000	
572	0.000000	0.000000	0.000000	-66.155212	-0.000008	-0.000022	1.000000	
573	0.000000	0.000000	0.000000	-66.528534	-0.000008	-0.000022	1.000000	
[RFoot]
#Fr     Tx      Ty      Tz      Rx      Ry      Rz      SF
569	0.000000	0.000000	0.000000	12.971612	-3.721026	15.734839	1.000000	
570	0.000000	0.000000	0.000000	11.090837	-3.436093	17.001085	1.000000	
571	0.000000	0.000000	0.000000	9.476201	-3.043927	17.647663	1.000000	
572	0.000000	0.000000	0.000000	9.276105	-2.699364	16.084839	1.000000	
573	0.000000	0.000000	0.000000	8.063671	-2.209104	15.220563	1.000000	
[RToe]
#Fr     Tx      Ty      Tz      Rx      Ry      Rz      SF
569	0.000000	0.000000	0.000000	15.978594	0.000029	0.000011	1.000000	
570	0.000000	0.000000	0.000000	16.270031	0.000030	0.000011	1.000000	
571	0.000000	0.000000	0.000000	16.138748	0.000030	0.000011	1.000000	
572	0.000000	0.000000	0.000000	13.011422	0.000024	0.000008	1.000000	
573	0.000000	0.000000	0.000000	12.461473	0.000023	0.000008	1.000000	
[LThigh]
#Fr     Tx      Ty      Tz      Rx      Ry      Rz      SF
569	0.000000	0.000000	0.000000	31.116905	8.922691	2.514527	1.000000	
570	0.000000	0.000000	0.000000	29.998238	7.456801	1.795721	1.000000	
571	0.000000	0.000000	0.000000	28.732975	6.121627	0.924466	1.000000	
572	0.000000	0.000000	0.000000	27.631870	5.141591	0.250281	1.000000	
573	0.000000	0.000000	0.000000	26.611349	4.289919	-0.307070	1.000000	
[LLowLeg]
#Fr     Tx      Ty      Tz      Rx      Ry      Rz      SF
569	0.000000	0.000000	0.000000	-40.489265	0.000064	-0.000042	1.000000	
570	0.000000	0.000000	0.000000	-42.434372	0.000067	-0.000045	1.000000	
571	0.000000	0.000000	0.000000	-43.584087	0.000068	-0.000047	1.000000	
572	0.000000	0.000000	0.000000	-43.507130	0.000068	-0.000047	1.000000	
573	0.000000	0.000000	0.000000	-43.611607	0.000068	-0.000047	1.000000	
[LFoot]
#Fr     Tx      Ty      Tz      Rx      Ry      Rz      SF
569	0.000000	0.000000	0.000000	11.647557	3.838143	-17.990355	1.000000	
570	0.000000	0.000000	0.000000	13.259821	4.269980	-17.534769	1.000000	
571	0.000000	0.000000	0.000000	14.360808	4.419168	-16.749619	1.000000	
572	0.000000	0.000000	0.000000	14.054905	4.157498	-16.150837	1.000000	
573	0.000000	0.000000	0.000000	14.573122	4.114028	-15.427097	1.000000	
[LToe]
#Fr     Tx      Ty      Tz      Rx      Ry      Rz      SF
569	0.000000	0.000000	0.000000	-9.136108	-0.000026	-0.000001	1.000000	
570	0.000000	0.000000	0.000000	-7.864359	-0.000022	-0.000001	1.000000	
571	0.000000	0.000000	0.000000	-6.826301	-0.000019	-0.000001	1.000000	
572	0.000000	0.000000	0.000000	-4.335062	-0.000012	-0.000001	1.000000	
573	0.000000	0.000000	0.000000	-4.187378	-0.000012	-0.000001	1.000000	
[EndOfFile]
